# xmcd
#
# Track frame offsets:
#	150
#	15491
#	35413
#	55555
#	74454
#	93433
#	110850
#	126374
#	147643
#
# Disc length: 2185 seconds
#
# Revision: 1
# Processed by: cddbd v1.5.2PL0 Copyright (c) Steve Scherf et al.
# Submitted via: audiograbber 1.83.01
#
DISCID=81088709
DTITLE=Alabama - Greatest Hits
DYEAR=2007
DGENRE=Country
TTITLE0=Forty hour week
TTITLE1=The closer you get
TTITLE2=Mountain Music (live)
TTITLE3=There´s no way
TTITLE4=Fire in the night
TTITLE5=Dixiland delight
TTITLE6=Feels so right
TTITLE7=I´m not that way anymore (live)
TTITLE8=Can´t keep a good man down
EXTD=
EXTT0=
EXTT1=
EXTT2=
EXTT3=
EXTT4=
EXTT5=
EXTT6=
EXTT7=
EXTT8=
PLAYORDER=
